<svg width="50" height="51" viewBox="0 0 50 51" fill="none" xmlns="http://www.w3.org/2000/svg">
<path d="M49.1218 20.3845L42.8656 15.0611V6.54741C42.8656 5.5887 42.1184 4.80861 41.2002 4.80861H37.2637C36.3454 4.80861 35.5982 5.5887 35.5982 6.54741V8.87694L27.2388 1.7638C26.634 1.24943 25.8371 0.966003 24.9946 0.966003C24.1556 0.966003 23.3624 1.24769 22.761 1.75937L0.878092 20.3844C-0.116178 21.2302 -0.0565251 21.967 0.0674748 22.3309C0.191172 22.694 0.589516 23.3032 1.86676 23.3032H4.8632V47.7962C4.8632 49.5441 6.2216 50.966 7.89128 50.966H17.354C19.0096 50.966 20.3064 49.5735 20.3064 47.7962V37.752C20.3064 36.8912 21.0642 36.1073 21.8962 36.1073H28.2551C29.0482 36.1073 29.6935 36.8452 29.6935 37.752V47.7962C29.6935 49.5144 31.1148 50.966 32.7972 50.966H42.1086C43.7783 50.966 45.1367 49.544 45.1367 47.7962V23.3032H48.1331C49.4104 23.3032 49.8086 22.694 49.9324 22.3309C50.0564 21.967 50.1161 21.2302 49.1218 20.3845Z" fill="black"/>
</svg>